<?xml version="1.0" encoding="utf-8"?>
<!-- Generator: Adobe Illustrator 16.0.4, SVG Export Plug-In . SVG Version: 6.00 Build 0)  -->
<!DOCTYPE svg PUBLIC "-//W3C//DTD SVG 1.1//EN" "http://www.w3.org/Graphics/SVG/1.1/DTD/svg11.dtd">
<svg version="1.1" id="Layer_1" xmlns="http://www.w3.org/2000/svg" xmlns:xlink="http://www.w3.org/1999/xlink" x="0px" y="0px"
	 width="831.75px" height="224px" viewBox="0 0 831.75 224" enable-background="new 0 0 831.75 224" xml:space="preserve">
<title>Group 2</title>
<desc>Created with Sketch.</desc>
<g id="logo-blue">
	<g id="Page-1">
		<g id="logo-blue-copy">
			<g id="Group" transform="translate(241.000000, 80.000000)">
				<path id="Shape" fill="#2683FF" d="M18.592,13.933c-1.262,1.038-1.892,2.411-1.892,4.12c0,1.71,0.771,3.068,2.312,4.078
					c1.541,1.008,5.1,2.2,10.676,3.572c5.577,1.373,9.906,3.432,12.989,6.178c3.081,2.746,4.624,6.753,4.624,12.021
					c0,5.27-1.976,9.541-5.927,12.818s-9.15,4.918-15.597,4.918c-9.303,0-17.682-3.447-25.135-10.342l7.818-9.582
					c6.332,5.551,12.188,8.322,17.567,8.322c2.407,0,4.302-0.521,5.676-1.559c1.372-1.037,2.06-2.438,2.06-4.203
					c0-1.764-0.729-3.166-2.186-4.2c-1.458-1.037-4.347-2.089-8.658-3.153c-6.839-1.625-11.84-3.738-15.005-6.347
					c-3.167-2.605-4.75-6.696-4.75-12.273c0-5.576,2.003-9.876,6.011-12.903c4.006-3.027,9.008-4.54,15.005-4.54
					c3.922,0,7.846,0.672,11.771,2.017c3.921,1.346,7.34,3.251,10.255,5.718l-6.644,9.582c-5.101-3.867-10.366-5.8-15.804-5.8
					C21.576,12.378,19.853,12.897,18.592,13.933L18.592,13.933L18.592,13.933z"/>
				<polygon id="Shape_1_" fill="#2683FF" points="79.83,13.556 79.83,60.967 66.717,60.967 66.717,13.556 50.073,13.556 
					50.073,2.207 96.475,2.207 96.475,13.556 				"/>
				<path id="Shape_2_" fill="#2683FF" d="M150.864,52.854c-5.938,5.801-13.255,8.703-21.939,8.703c-8.688,0-16-2.902-21.941-8.703
					c-5.938-5.799-8.91-13.015-8.91-21.646s2.973-15.847,8.91-21.646c5.941-5.8,13.253-8.701,21.941-8.701
					c8.687,0,16.001,2.901,21.939,8.701c5.939,5.801,8.91,13.016,8.91,21.646S156.803,47.055,150.864,52.854L150.864,52.854
					L150.864,52.854z M146.408,31.25c0-5.238-1.685-9.708-5.047-13.407c-3.359-3.699-7.493-5.548-12.396-5.548
					c-4.905,0-9.037,1.85-12.399,5.548c-3.359,3.698-5.043,8.168-5.043,13.407c0,5.242,1.684,9.697,5.043,13.365
					c3.363,3.673,7.494,5.508,12.399,5.508c4.903,0,9.036-1.835,12.396-5.508C144.727,40.947,146.408,36.491,146.408,31.25
					L146.408,31.25L146.408,31.25z"/>
				<path id="Shape_3_" fill="#2683FF" d="M215.507,21.71c0,9.415-3.729,15.496-11.183,18.242l14.878,21.015h-16.14l-13.029-18.746
					h-9.08v18.746h-13.11V2.208h22.274c9.136,0,15.648,1.542,19.543,4.623C213.559,9.913,215.507,14.872,215.507,21.71
					L215.507,21.71L215.507,21.71z M199.7,28.687c1.624-1.457,2.438-3.769,2.438-6.935s-0.84-5.339-2.521-6.515
					c-1.68-1.178-4.622-1.765-8.826-1.765h-9.836v17.4h9.586C195.022,30.872,198.073,30.145,199.7,28.687L199.7,28.687L199.7,28.687
					z"/>
				<path id="Shape_4_" fill="#2683FF" d="M227.444,13.471V2.206h30.598v38.333c0,7.006-1.808,12.246-5.422,15.721
					c-3.612,3.475-8.252,5.211-13.912,5.211c-7.062,0-13.228-2.718-18.492-8.154l6.809-9.414c3.532,3.812,7.23,5.719,11.097,5.719
					c1.853,0,3.436-0.717,4.75-2.146c1.315-1.429,1.979-3.572,1.979-6.431V13.472L227.444,13.471L227.444,13.471L227.444,13.471
					L227.444,13.471z"/>
			</g>
			<g id="Group_1_">
				<path id="Shape_5_" fill="#2683FF" d="M198.309,64.922c-0.179,6.992-3.214,12.203-9.071,15.715
					c-1.078,0.646-1.453,1.304-1.45,2.536c0.034,19.074,0.031,38.149,0.005,57.22c-0.002,1.146,0.29,1.836,1.341,2.441
					c6.776,3.916,10.205,11.139,8.988,18.732c-1.167,7.273-6.983,13.252-14.52,14.684c-4.368,0.833-8.599,0.17-12.427-2.18
					c-1.167-0.713-1.989-0.588-3.083,0.043c-16.397,9.498-32.812,18.971-49.246,28.408c-1.124,0.646-1.545,1.354-1.542,2.668
					c0.017,9.178-7.066,17.164-15.914,18.054c-9.424,0.95-17.756-4.972-19.792-14.116c-0.312-1.406-0.417-2.876-0.449-4.314
					c-0.021-0.976-0.294-1.57-1.161-2.074c-16.658-9.584-33.308-19.189-49.945-28.811c-0.901-0.525-1.609-0.529-2.521,0.02
					c-10.873,6.547-24.729,0.271-27.037-11.954c-1.455-7.726,1.689-14.946,8.604-19.017c1.092-0.645,1.586-1.293,1.584-2.629
					c-0.05-19.076-0.042-38.146-0.012-57.221c0.001-1.146-0.3-1.824-1.349-2.433C2.373,76.663-0.892,69.659,0.441,61.795
					c1.324-7.812,7.365-13.543,15.229-14.663c4.214-0.599,8.275,0.169,11.924,2.497c0.847,0.542,1.476,0.525,2.338,0.028
					c16.591-9.601,33.195-19.175,49.812-28.727c1.005-0.578,1.396-1.241,1.397-2.425C81.169,8,89.47-0.042,99.988,0.171
					c8.198,0.164,15.869,6.931,17.032,15.021c0.106,0.744,0.273,1.202,0.273,2.226c0,2.243,0.826,3.194,2.569,4.192
					c16.124,9.226,32.203,18.524,48.271,27.838c1.104,0.642,1.906,0.668,3.056,0.016c10.914-6.225,24.147-0.259,26.807,12.059
					C198.246,62.669,198.222,63.875,198.309,64.922L198.309,64.922L198.309,64.922z M56.021,130.355
					c-0.165,0.143-0.273,0.263-0.414,0.34c-9.045,5.227-18.083,10.463-27.161,15.627c-0.502,0.285-1.477,0.227-1.984-0.081
					c-2.399-1.448-4.954-2.41-7.75-2.485c-9.302-0.238-14.959,7.36-15.277,13.961c-0.368,7.732,5.482,15.652,14.943,15.581
					c8.297-0.062,14.608-6.715,14.526-15.017c-0.013-1.482,0.426-2.321,1.727-3.061c9.64-5.488,19.241-11.043,28.833-16.613
					c0.927-0.541,1.673-0.629,2.682-0.153c5.982,2.812,12.168,3.288,18.545,1.485c0.635-0.178,1.479,0.002,2.11,0.271
					c1.875,0.798,3.666,1.812,5.553,2.567c1.076,0.438,1.439,1.023,1.438,2.166c-0.033,15.035-0.03,30.066-0.003,45.103
					c0.001,1.062-0.333,1.665-1.303,2.128c-5.063,2.441-8.889,8.743-7.846,15.48c1.21,7.828,9.253,13.74,17.015,12.225
					c6.841-1.335,11.33-6.004,12.292-13.188c0.651-4.871-1.689-11.301-7.954-14.521c-0.852-0.435-1.318-0.907-1.315-1.952
					c0.031-14.604,0.034-29.205,0-43.807c0-1.299,0.596-1.562,1.733-1.766c3-0.525,6.007-1.106,8.938-1.931
					c1.327-0.373,2.375-0.426,3.661,0.13c6.429,2.764,12.688,2.291,18.676-1.322c0.855-0.512,1.468-0.535,2.326-0.033
					c7.91,4.605,15.833,9.191,23.792,13.711c1.288,0.729,1.785,1.533,1.747,3.043c-0.23,8.736,7.389,15.876,16.271,14.929
					c8.724-0.927,14.9-9.319,12.877-17.81c-2.425-10.172-13.44-14.762-22.343-9.264c-0.938,0.577-1.616,0.734-2.617,0.148
					c-7.528-4.398-15.077-8.771-22.657-13.085c-1.121-0.638-1.271-1.229-0.913-2.431c2.286-7.701,0.729-14.555-4.783-20.456
					c-1.078-1.154-6.136-9.231-6.841-10.72c-0.561-1.178-0.321-1.807,0.801-2.451c11.493-6.582,22.969-13.197,34.425-19.843
					c0.923-0.533,1.549-0.542,2.455,0.066c3.229,2.167,6.849,2.853,10.647,2.188c7.393-1.296,12.751-7.986,12.092-15.883
					c-0.717-8.567-9.12-14.971-17.516-13.113c-7.362,1.631-11.989,7.387-11.904,14.954c0.012,1.289-0.349,2.024-1.496,2.682
					c-11.641,6.659-23.247,13.363-34.835,20.107c-1.045,0.607-1.616,0.481-2.457-0.329c-5.46-5.26-12.03-8.214-19.525-9.151
					c-2.529-0.318-2.531-0.305-2.531-2.916c-0.001-13.686,0.033-27.372-0.04-41.057c-0.011-1.91,0.438-3.017,2.228-4.045
					c6.417-3.687,8.854-11.624,5.92-18.392C109.845,5.547,102.281,1.9,95.187,4.061c-6.457,1.967-10.056,6.528-10.688,13.166
					c-0.487,5.122,1.936,10.812,7.779,14.007c0.898,0.49,1.524,0.921,1.521,2.153c-0.048,15.089-0.045,30.175-0.007,45.264
					c0.002,1.196-0.543,1.601-1.521,2.095c-2.919,1.471-6.051,2.758-8.526,4.808c-2.859,2.359-5.531,3.723-9.514,3.723
					c-0.388-0.012-0.638,0.025-1.042,0.017c-0.983-0.021-2.094-0.062-2.898-0.523c-11.739-6.695-23.417-13.5-35.171-20.173
					c-1.682-0.952-2.489-1.973-2.209-3.907c0.109-0.771-0.127-1.597-0.253-2.391c-1.146-7.229-8.219-13.276-16.753-11.874
					c-8.374,1.384-13.69,8.96-12.309,17.069c1.762,10.356,13.58,15.598,22.496,9.933c1.006-0.639,1.702-0.689,2.733-0.088
					c8.836,5.154,17.709,10.247,26.567,15.36c1.521,0.877,3.032,1.76,4.541,2.636C49.759,106.122,48.616,117.707,56.021,130.355
					L56.021,130.355L56.021,130.355z"/>
				<path id="Shape_6_" fill="#2683FF" d="M80.502,95.502c2.33,0.206,3.489-0.577,5.188-2.159c7.351-6.829,16.02-8.943,25.535-5.782
					c9.358,3.108,15.161,9.758,17.083,19.514c0.376,1.91,1.128,3.059,2.834,4.032c4.88,2.78,7.689,8.792,6.728,13.799
					c-1.251,6.484-5.503,10.98-11.518,11.934c-3.204,0.512-6.382,0.145-9.2-1.59c-1.263-0.779-2.262-0.693-3.564-0.148
					c-8.37,3.521-16.479,2.922-24.181-1.922c-1.186-0.748-2.176-0.806-3.454-0.386c-10.857,3.547-22.149-2.614-24.906-13.44
					C57.888,106.938,67.791,94.935,80.502,95.502L80.502,95.502L80.502,95.502z"/>
				<path id="Shape_7_" fill="#2683FF" d="M176.143,158.559c0-2.429,1.745-4.19,4.135-4.188c2.304,0.012,4.265,1.91,4.285,4.158
					c0.025,2.164-2.067,4.258-4.251,4.262C177.977,162.791,176.144,160.932,176.143,158.559L176.143,158.559L176.143,158.559z"/>
				<path id="Shape_8_" fill="#2683FF" d="M95.02,18.24c0.009-2.352,1.843-4.167,4.213-4.169c2.374-0.002,4.194,1.809,4.203,4.17
					c0.006,2.264-1.971,4.266-4.192,4.238C96.98,22.457,95.013,20.479,95.02,18.24L95.02,18.24L95.02,18.24z"/>
				<path id="Shape_9_" fill="#2683FF" d="M22.31,158.576c-0.009,2.371-1.855,4.234-4.181,4.215
					c-2.195-0.021-4.227-2.068-4.234-4.277c-0.011-2.209,1.997-4.143,4.301-4.143C20.583,154.373,22.319,156.146,22.31,158.576
					L22.31,158.576L22.31,158.576z"/>
				<path id="Shape_10_" fill="#2683FF" d="M99.279,201.173c2.368,0.017,4.167,1.817,4.156,4.161
					c-0.015,2.335-1.841,4.094-4.241,4.079c-2.38-0.013-4.197-1.826-4.174-4.163C95.047,202.926,96.902,201.154,99.279,201.173
					L99.279,201.173L99.279,201.173z"/>
				<path id="Shape_11_" fill="#2683FF" d="M18.243,69.122c-2.4,0.021-4.276-1.728-4.35-4.047c-0.068-2.26,1.827-4.157,4.193-4.191
					c2.47-0.037,4.186,1.609,4.221,4.044C22.347,67.375,20.672,69.1,18.243,69.122L18.243,69.122L18.243,69.122z"/>
				<path id="Shape_12_" fill="#2683FF" d="M180.226,69.128c-2.426-0.017-4.104-1.745-4.083-4.192
					c0.024-2.429,1.745-4.081,4.215-4.049c2.368,0.033,4.253,1.913,4.197,4.185C184.499,67.374,182.61,69.145,180.226,69.128
					L180.226,69.128L180.226,69.128z"/>
			</g>
		</g>
	</g>
</g>
<g>
	<path fill="#2683FF" d="M527.989,82.153h17.536c2.215,0,4.459,0.236,6.731,0.707c2.271,0.471,4.308,1.275,6.108,2.41
		c1.8,1.136,3.269,2.674,4.404,4.612c1.135,1.94,1.704,4.377,1.704,7.313c0,3.104-0.948,5.804-2.842,8.103
		c-1.893,2.3-4.428,3.81-7.602,4.529v0.167c3.815,0.444,6.979,1.926,9.495,4.446c2.516,2.522,3.773,5.942,3.773,10.264
		c0,2.438-0.512,4.669-1.535,6.69c-1.022,2.023-2.474,3.739-4.354,5.152s-4.175,2.508-6.884,3.283
		c-2.709,0.776-5.75,1.163-9.121,1.163h-17.416V82.153z M533.973,107.916h12.05c1.44,0,2.895-0.167,4.363-0.499
		c1.468-0.333,2.812-0.9,4.031-1.704c1.218-0.802,2.202-1.87,2.95-3.199c0.748-1.33,1.121-2.963,1.121-4.903
		c0-1.883-0.373-3.476-1.121-4.779c-0.748-1.301-1.76-2.369-3.034-3.2s-2.771-1.426-4.487-1.787c-1.718-0.36-3.546-0.54-5.485-0.54
		h-10.388V107.916z M533.973,135.84h11.136c2.161,0,4.225-0.208,6.191-0.624c1.966-0.415,3.685-1.08,5.152-1.994
		s2.646-2.104,3.532-3.573c0.886-1.468,1.33-3.228,1.33-5.277c0-3.878-1.316-6.773-3.947-8.685
		c-2.633-1.912-6.358-2.867-11.178-2.867h-12.217V135.84z"/>
	<path fill="#2683FF" d="M583.503,140.992h-5.984V82.153h17.286c2.881,0,5.555,0.278,8.021,0.831
		c2.464,0.555,4.598,1.455,6.398,2.701c1.8,1.247,3.2,2.867,4.197,4.862c0.997,1.994,1.496,4.433,1.496,7.313
		c0,2.161-0.389,4.128-1.164,5.901c-0.776,1.773-1.828,3.311-3.157,4.612c-1.33,1.302-2.909,2.341-4.737,3.116
		c-1.828,0.777-3.823,1.275-5.983,1.496l17.202,28.007h-7.312l-16.289-27.508h-9.973V140.992z M583.503,108.332h10.388
		c4.82,0,8.531-0.873,11.137-2.618c2.604-1.745,3.906-4.363,3.906-7.854c0-1.938-0.361-3.573-1.081-4.903
		c-0.721-1.33-1.718-2.41-2.991-3.241c-1.275-0.831-2.826-1.44-4.654-1.829c-1.828-0.387-3.852-0.582-6.066-0.582h-10.638V108.332z"
		/>
	<path fill="#2683FF" d="M629.959,140.992h-5.984V82.153h5.984V140.992z"/>
	<path fill="#2683FF" d="M642.258,82.153h19.53c3.657,0,7.326,0.61,11.012,1.829c3.684,1.219,7.008,3.062,9.973,5.526
		c2.963,2.466,5.36,5.541,7.188,9.225c1.829,3.685,2.743,7.965,2.743,12.84c0,4.932-0.914,9.225-2.743,12.881
		c-1.828,3.656-4.226,6.719-7.188,9.184c-2.965,2.466-6.289,4.309-9.973,5.526c-3.686,1.219-7.354,1.828-11.012,1.828h-19.53V82.153
		z M648.242,135.674h11.884c4.432,0,8.297-0.692,11.594-2.078c3.295-1.384,6.025-3.199,8.186-5.443
		c2.161-2.244,3.781-4.806,4.862-7.688c1.08-2.88,1.62-5.845,1.62-8.892c0-3.046-0.54-6.011-1.62-8.893
		c-1.081-2.88-2.701-5.443-4.862-7.688c-2.16-2.244-4.891-4.058-8.186-5.443c-3.297-1.384-7.162-2.078-11.594-2.078h-11.884V135.674
		z"/>
	<path fill="#2683FF" d="M746.473,92.791c-2.051-2.161-4.488-3.836-7.313-5.028c-2.826-1.191-6.067-1.787-9.724-1.787
		c-3.769,0-7.161,0.692-10.181,2.075c-3.021,1.383-5.582,3.25-7.688,5.601c-2.106,2.351-3.727,5.075-4.861,8.172
		c-1.137,3.098-1.704,6.361-1.704,9.791c0,3.431,0.567,6.693,1.704,9.791c1.135,3.098,2.755,5.809,4.861,8.131
		c2.105,2.323,4.667,4.177,7.688,5.56c3.02,1.383,6.412,2.073,10.181,2.073c3.324,0,6.37-0.359,9.142-1.08
		c2.77-0.72,5.014-1.634,6.731-2.742v-17.868h-13.712v-5.319h19.695v26.58c-3.214,1.944-6.677,3.388-10.388,4.332
		c-3.713,0.944-7.562,1.417-11.552,1.417c-4.434,0-8.533-0.776-12.3-2.327c-3.769-1.551-7.01-3.698-9.724-6.44
		c-2.715-2.743-4.834-5.997-6.357-9.766c-1.524-3.767-2.285-7.895-2.285-12.382s0.774-8.615,2.326-12.383
		c1.551-3.767,3.698-7.022,6.441-9.765c2.742-2.743,5.983-4.889,9.724-6.441c3.739-1.55,7.797-2.327,12.175-2.327
		c4.708,0,8.81,0.704,12.3,2.111s6.482,3.363,8.976,5.867L746.473,92.791z"/>
	<path fill="#2683FF" d="M769.243,135.674h31.497v5.318h-37.481V82.153h36.484v5.319h-30.5v20.195h28.505v5.319h-28.505V135.674z"/>
</g>
</svg>
